# xmcd CD database file
#
# Track frame offsets:
#	150
#	3992
#	27995
#	33277
#	59584
#	89937
#	94600
#	102417
#	124600
#	149112
#	177008
#	179358
#	197703
#
# Disc length: 2884 seconds
#
# Revision: 0
# Processed by: cddbd v1.5PL3 Copyright (c) Steve Scherf et al.
# Submitted via: CDex 1.50Beta7
#
DISCID=b60b420d
DTITLE=Day and Taxi - Material
DYEAR=2001
DGENRE=Jazz
TTITLE0=17
TTITLE1=Bianca
TTITLE2=X
TTITLE3=Yumi
TTITLE4=Urs and us
TTITLE5=3
TTITLE6=Manfield
TTITLE7=010
TTITLE8=One for B
TTITLE9=Save
TTITLE10=2
TTITLE11=Urs ans us (thin version)
TTITLE12=Monster
EXTD=YEAR: 2001
EXTT0=
EXTT1=
EXTT2=
EXTT3=
EXTT4=
EXTT5=
EXTT6=
EXTT7=
EXTT8=
EXTT9=
EXTT10=
EXTT11=
EXTT12=
PLAYORDER=
